.
..............................Site Info...........................

 -   http://www.scenetime.com  *_*   


Scenetime .Always on time . friendly online private torrent community ..

     We care to share . Join us on  http://www.scenetime.com 

    Be the first to get new release at  http://www.scenetime.com

        Seed back for speed


...................................NFO:.................................................[center][img]http://lookpic.com/O/i2/1561/Qr7DW86k.jpeg[/img][/center]
http://www.imdb.com/title/tt1327194/

[b]Really nice cam here just removed the flicker almost completely
and removed the noise in the higher frequency range, so sounds
abit nicer and looks alittle better. Great job by all involved. :yes:

Sources: Video: TNZ/26k 720p
               Audio: Santanas/ INSPiRAL  Thanx

The.Lucky.One.2012.CaM.XviD-INFERNO

Format                           : AVI
Format/Info                      : Audio Video Interleave
File size                        : 896 MiB
Duration                         : 1h 37mn
Overall bit rate                 : 1 288 Kbps

Video
ID                               : 0
Format                           : MPEG-4 Visual
Format profile                   : Advanced Simple@L5
Format settings, BVOP            : 2
Format settings, QPel            : No
Format settings, GMC             : No warppoints
Format settings, Matrix          : Default (H.263)
Muxing mode                      : Packed bitstream
Codec ID                         : XVID
Codec ID/Hint                    : XviD
Duration                         : 1h 37mn
Bit rate                         : 1 150 Kbps
Width                            : 688 pixels
Height                           : 288 pixels
Display aspect ratio             : 2.35:1
Frame rate                       : 25.000 fps
Color space                      : YUV
Chroma subsampling               : 4:2:0
Bit depth                        : 8 bits
Scan type                        : Progressive
Compression mode                 : Lossy
Bits/(Pixel*Frame)               : 0.232
Stream size                      : 800 MiB (89%)
Writing library                  : XviD 64

Audio
ID                               : 1
Format                           : MPEG Audio
Format version                   : Version 1
Format profile                   : Layer 3
Codec ID                         : 55
Codec ID/Hint                    : MP3
Duration                         : 1h 37mn
Bit rate mode                    : Constant
Bit rate                         : 128 Kbps
Channel(s)                       : 2 channels
Sampling rate                    : 48.0 KHz
Compression mode                 : Lossy
Stream size                      : 89.1 MiB (10%)
Alignment                        : Split accross interleaves
Interleave, duration             : 40 ms (1.00 video frame)
Interleave, preload duration     : 500 ms

Screens[/b]
[center][img]http://lookpic.com/O/i2/82/RgZgwy7M.png[/img][/center]
[center][img]http://lookpic.com/O/i2/1032/0LKSeNuX.png[/img][/center]
[center][img]http://lookpic.com/O/i2/986/iiDJnlei.png[/img][/center]
[center][img]http://lookpic.com/O/i2/234/gg2BzdI.png[/img][/center][center][img]http://lookpic.com/O/i2/543/DHmMFccn.png[/img][/center]
[center][img]http://www.myimg.us/images/02.20.12/24265.gif[/img][/center]